<?xml version="1.0"?>
<svg version="1.1" id="圖層_1" xmlns="http://www.w3.org/2000/svg" x="0" y="0" viewBox="0 0 100 100" xml:space="preserve"><path d="M70.835 34.014c0 14.48-9.667 27.98-21.591 27.98s-21.591-13.501-21.591-27.98S37.319 10 49.244 10s21.591 9.535 21.591 24.014z" fill="#e15b64" stroke="#333" stroke-width="3.5" stroke-miterlimit="10"/><path d="M39.771 20.439a20.471 20.471 0 0 1 6.847-4.56" fill="#e15b64" stroke="#fff" stroke-width="3.5" stroke-linecap="round" stroke-miterlimit="10"/><path d="M34.017 30.505c.208-.738.445-1.455.709-2.15" fill="#e15b64" stroke="#fff" stroke-width="3.5" stroke-linecap="round" stroke-miterlimit="10"/><path d="M63.227 15.333c.011.458.023.916.023 1.382 0 19.424-10.095 37.535-22.549 37.535-2.787 0-5.455-.913-7.92-2.539 3.96 6.146 9.864 10.284 16.462 10.284 11.924 0 21.591-13.5 21.591-27.98.001-7.998-2.957-14.475-7.607-18.682z" opacity=".2" stroke="#000" stroke-width="3.5" stroke-linecap="round" stroke-linejoin="round" stroke-miterlimit="10"/><path d="M51.941 70.91h-5.394a2.62 2.62 0 0 1-2.515-3.356l1.685-5.764h7.053l1.685 5.764a2.62 2.62 0 0 1-2.514 3.356z" fill="#e15b64" stroke="#333" stroke-width="3.5" stroke-miterlimit="10"/><path d="M48.954 70.91c-.553 3.719-.769 7.24-.718 11 .025 1.853.142 3.773 1.002 5.414.86 1.641 2.658 2.929 4.487 2.634 1.899-.306 3.157-2.104 4.037-3.814.969-1.884 1.762-3.863 2.893-5.653 1.131-1.791 2.664-3.42 4.644-4.174.99-.377 2.146-.508 3.081-.011 1.604.853 1.83 3.015 1.894 4.831.064 1.816.406 3.995 2.075 4.712" fill="none" stroke="#333" stroke-width="3.5" stroke-linecap="round" stroke-linejoin="round" stroke-miterlimit="10"/><metadata xmlns:d="https://loading.io/stock/"><d:name>balloon</d:name><d:tags>balloon,blow,float,fly,party,toy</d:tags><d:license>by</d:license><d:slug>nbm0uk</d:slug></metadata></svg>