<?xml version="1.0" encoding="utf-8"?><!--Generator: Adobe Illustrator 24.0.1, SVG Export Plug-In . SVG Version: 6.00 Build 0)--><svg version="1.1" id="圖層_1" xmlns="http://www.w3.org/2000/svg" xmlns:xlink="http://www.w3.org/1999/xlink" x="0px" y="0px" viewBox="0 0 100 100" enable-background="new 0 0 100 100" xml:space="preserve"><path fill="none" stroke="#000000" stroke-width="3.5" stroke-linecap="round" stroke-linejoin="round" stroke-miterlimit="10" d=" M43.12,68.09c-0.59,5.79-5.88,7.71-5.38,14.08c0.35,4.41,3.17,8.43,6.88,9.82c4.04,1.51,8.56-0.03,12.11-2.69s6.37-6.36,9.42-9.73 c3.05-3.37,6.5-6.53,10.64-7.69c6.21-1.74,13.28,1.89,16.21,8.32"/><path fill="#F47E5F" stroke="#000000" stroke-width="3.5" stroke-linecap="round" stroke-linejoin="round" stroke-miterlimit="10" d=" M36.97,67.31c2.63,4.24,5.26,8.48,7.89,12.72C39.7,80.02,34.54,80.01,29.37,80C31.9,75.77,34.44,71.54,36.97,67.31z"/><path fill="#77A4BD" stroke="#000000" stroke-width="3.5" stroke-linecap="round" stroke-linejoin="round" stroke-miterlimit="10" d=" M65.72,38.82c0,17.14-12.75,33.03-28.49,33.03S8.74,55.96,8.74,38.82S21.5,9.78,37.23,9.78S65.72,21.68,65.72,38.82z"/><metadata xmlns:d="https://loading.io/stock/">
<d:name>toy</d:name>
<d:tags>toy,ballon,party,celebration,childlike,play,flying</d:tags>
<d:license>by</d:license>
<d:slug>7pjsm9</d:slug>
</metadata></svg>