<?xml version="1.0"?><svg version="1.1" id="圖層_1" xmlns="http://www.w3.org/2000/svg" x="0" y="0" viewBox="0 0 100 100" xml:space="preserve"><path d="M87.7 41.3c0 28.9-38.9 47.1-38.9 47.1S10 70.2 10 41.3s38.9-31.4 38.9-5.1c0-26.3 38.8-23.8 38.8 5.1z" fill="#e15b64"/><path d="M18.4 31.1c2.2-3.2 5.4-5.3 8.9-6.5" fill="#e15b64" stroke="#fff" stroke-linecap="round" stroke-width="3.5" stroke-miterlimit="10"/><path d="M15.4 41.2V40" fill="#e15b64" stroke="#fff" stroke-linecap="round" stroke-width="3.5" stroke-miterlimit="10"/><path d="M77 20.9c-.1 5.4-1.3 11.7-4 18.8-7.9 20.5-23.2 33.7-36.2 41.6 6.7 4.6 12 7.1 12 7.1s38.9-18.3 38.9-47.1c0-10-4.6-16.8-10.7-20.4z" opacity=".2"/><path d="M89.2 27.2l-6.1-.4c-4.7-.3-8.4-4.1-8.7-8.8l-.4-7c0-.4-.4-.8-.8-.8H73c-.4 0-.8.3-.8.8l-.4 7c-.3 4.7-4 8.4-8.7 8.8l-6.1.4c-.4 0-.7.3-.8.7-.1.5.3.9.7 1l6.1.4c4.7.3 8.4 4.1 8.7 8.8l.4 7c0 .4.4.8.8.8h.2c.4 0 .8-.3.8-.8l.4-7c.3-4.7 4-8.4 8.7-8.8l6.1-.4c.5 0 .8-.5.7-1 .1-.4-.2-.7-.6-.7z" fill="#f5e169"/><path d="M36.7 68l-4.6-.3c-3.5-.3-6.3-3.1-6.5-6.6l-.3-5.2c0-.3-.3-.6-.6-.6h-.1c-.3 0-.6.3-.6.6l-.3 5.2c-.2 3.5-3 6.3-6.5 6.6l-4.7.3c-.3 0-.5.2-.6.5-.1.4.2.7.6.7l4.6.3c3.5.3 6.3 3.1 6.5 6.6l.3 5.2c0 .3.3.6.6.6h.1c.3 0 .6-.3.6-.6l.3-5.2c.2-3.5 3-6.3 6.5-6.6l4.6-.3c.4 0 .6-.4.6-.7 0-.2-.2-.4-.5-.5z" fill="#f5e169"/><path d="M62.3 64.6l-2.3-.2c-1.8-.1-3.2-1.5-3.3-3.3l-.2-2.6c0-.2-.1-.3-.3-.3h-.1c-.2 0-.3.1-.3.3l-.2 2.6c-.1 1.8-1.5 3.2-3.3 3.3l-2.3.2c-.1 0-.3.1-.3.3 0 .2.1.3.3.4l2.3.2c1.8.1 3.2 1.5 3.3 3.3l.2 2.6c0 .2.1.3.3.3h.1c.2 0 .3-.1.3-.3l.2-2.6c.1-1.8 1.5-3.2 3.3-3.3l2.3-.2c.2 0 .3-.2.3-.4 0-.1-.1-.2-.3-.3z" fill="#f5e169"/><path d="M87.1 75.7l-4.6-.3c-3.5-.3-6.3-3.1-6.5-6.6l-.3-5.2c0-.3-.3-.6-.6-.6H75c-.3 0-.6.3-.6.6l-.4 5.2c-.2 3.5-3 6.3-6.5 6.6l-4.5.3c-.3 0-.5.2-.6.5-.1.4.2.7.6.7l4.6.3c3.5.3 6.3 3.1 6.5 6.6l.3 5.2c0 .3.3.6.6.6h.1c.3 0 .6-.3.6-.6l.3-5.2c.2-3.5 3-6.3 6.5-6.6l4.6-.3c.4 0 .6-.4.6-.7 0-.2-.3-.4-.6-.5z" fill="#f5e169"/><path d="M37.4 37.2l-1.4-.1c-1-.1-1.9-.9-1.9-2l-.1-1.5c0-.1-.1-.2-.2-.2s-.2.1-.2.2l-.1 1.6c-.1 1-.9 1.9-1.9 2l-1.4.1c-.1 0-.2.1-.2.2s.1.2.2.2l1.4.1c1 .1 1.9.9 1.9 2l.1 1.6c0 .1.1.2.2.2s.2-.1.2-.2l.1-1.6c.1-1 .9-1.9 1.9-2l1.4-.1c.1 0 .2-.1.2-.2-.1-.2-.2-.3-.2-.3z" fill="#f5e169"/><metadata xmlns:d="https://loading.io/stock/">
<d:name>heart</d:name>
<d:tags>heart,love,passion,like,amor,enchanted,favor,attractive,emotion,shiny</d:tags>
<d:license>by</d:license>
<d:slug>6zeq1y</d:slug>
</metadata></svg>