<?xml version="1.0" encoding="iso-8859-1"?>
<!-- Generator: Adobe Illustrator 19.1.0, SVG Export Plug-In . SVG Version: 6.00 Build 0)  -->
<svg version="1.1" id="Capa_1" xmlns="http://www.w3.org/2000/svg" xmlns:xlink="http://www.w3.org/1999/xlink" x="0px" y="0px"
	 viewBox="0 0 422.497 422.497" style="enable-background:new 0 0 422.497 422.497;" xml:space="preserve">
<g>
	<path style="fill:#45CE83;" d="M421.995,130.795c0.339,3.676,0.502,7.378,0.502,11.067c0,21.239-5.425,42.452-16.289,61.413
		c-16.75-7.663-23.586-22.772-50.535-22.772c-36.118,0-36.118,27.126-72.222,27.126s-36.104-27.126-72.222-27.126
		c-36.104,0-36.104,27.126-72.209,27.126s-36.104-27.126-72.222-27.126c-26.949,0-33.785,15.109-50.522,22.758
		C5.425,184.301,0,163.088,0,141.862c0-3.689,0.163-7.392,0.502-11.067c30.313-2.794,32.28-26.868,66.295-26.868
		c36.118,0,36.118,27.126,72.222,27.126s36.104-27.126,72.209-27.126c36.118,0,36.118,27.126,72.222,27.126
		s36.104-27.126,72.222-27.126C389.702,103.927,391.655,128.015,421.995,130.795z"/>
	<path style="fill:#F4E84A;" d="M421.995,130.795c-30.34-2.78-32.293-26.868-66.322-26.868c-36.118,0-36.118,27.126-72.222,27.126
		s-36.104-27.126-72.222-27.126c-36.104,0-36.104,27.126-72.209,27.126s-36.104-27.126-72.222-27.126
		c-34.016,0-35.982,24.074-66.295,26.868C2.984,102.91,14.906,75.703,36.24,54.368c48.324-48.324,126.677-48.324,175.002,0
		c24.169-24.155,55.825-36.24,87.508-36.24c31.656,0,63.339,12.085,87.494,36.24C407.591,75.703,419.513,102.91,421.995,130.795z"/>
	<path style="fill:#46B9CC;" d="M355.673,180.503c26.949,0,33.785,15.109,50.535,22.772c-5.33,9.345-11.99,18.12-19.965,26.095
		l-27.777,27.777c-0.909-0.054-1.831-0.068-2.794-0.068c-36.118,0-36.118,27.126-72.222,27.126s-36.104-27.126-72.222-27.126
		c-36.104,0-36.104,27.126-72.209,27.126s-36.104-27.126-72.222-27.126c-0.963,0-1.885,0.014-2.794,0.054L36.24,229.37
		c-7.975-7.975-14.621-16.764-19.965-26.109c16.737-7.649,23.572-22.758,50.522-22.758c36.118,0,36.118,27.126,72.222,27.126
		s36.104-27.126,72.209-27.126c36.118,0,36.118,27.126,72.222,27.126S319.555,180.503,355.673,180.503z"/>
	<path style="fill:#F2D24C;" d="M358.467,257.147L211.242,404.372L64.003,257.133c0.909-0.041,1.831-0.054,2.794-0.054
		c36.118,0,36.118,27.126,72.222,27.126s36.104-27.126,72.209-27.126c36.118,0,36.118,27.126,72.222,27.126
		s36.104-27.126,72.222-27.126C356.636,257.079,357.558,257.093,358.467,257.147z"/>
	<path style="fill:#FFFFFF;" d="M189.314,83.289c-1.792,0-3.583-0.684-4.95-2.05c-5.592-5.593-11.875-10.369-18.674-14.195
		c-3.369-1.896-4.562-6.164-2.667-9.533c1.896-3.369,6.163-4.565,9.534-2.667c7.909,4.452,15.213,10.001,21.707,16.496
		c2.733,2.734,2.733,7.166-0.001,9.899C192.897,82.605,191.105,83.289,189.314,83.289z"/>
	<path style="fill:#FFFFFF;" d="M58.154,83.288c-1.791,0-3.583-0.684-4.95-2.05c-2.733-2.733-2.733-7.166,0-9.899
		c18.839-18.839,43.888-29.214,70.53-29.214c6.768,0,13.528,0.678,20.095,2.015c3.788,0.771,6.234,4.468,5.463,8.256
		c-0.772,3.789-4.47,6.231-8.256,5.463c-5.649-1.15-11.471-1.733-17.302-1.733c-22.903,0-44.436,8.919-60.63,25.113
		C61.737,82.605,59.945,83.288,58.154,83.288z"/>
	<path style="fill:#FFFFFF;" d="M391.112,140.65c-3.579,0-6.632-2.73-6.963-6.364l-0.01-0.107c-0.326-3.656-0.892-7.31-1.683-10.875
		c-0.837-3.774,1.544-7.513,5.318-8.35c3.77-0.838,7.513,1.543,8.35,5.318c0.921,4.154,1.58,8.41,1.958,12.649l0.008,0.091
		c0.352,3.85-2.484,7.256-6.334,7.608C391.54,140.64,391.325,140.65,391.112,140.65z"/>
	<path style="fill:#FFFFFF;" d="M379.71,103.633c-2.454,0-4.835-1.292-6.117-3.586c-3.857-6.901-8.643-13.229-14.224-18.807
		c-16.195-16.194-37.726-25.112-60.626-25.112c-3.866,0-7-3.134-7-7s3.134-7,7-7c26.64,0,51.686,10.374,70.523,29.211
		c6.492,6.488,12.061,13.85,16.547,21.877c1.886,3.375,0.68,7.639-2.695,9.525C382.038,103.346,380.865,103.633,379.71,103.633z"/>
</g>
<g>
</g>
<g>
</g>
<g>
</g>
<g>
</g>
<g>
</g>
<g>
</g>
<g>
</g>
<g>
</g>
<g>
</g>
<g>
</g>
<g>
</g>
<g>
</g>
<g>
</g>
<g>
</g>
<g>
</g>
</svg>
