<?xml version="1.0" encoding="iso-8859-1"?>
<!-- Generator: Adobe Illustrator 19.0.0, SVG Export Plug-In . SVG Version: 6.00 Build 0)  -->
<svg version="1.1" id="Layer_1" xmlns="http://www.w3.org/2000/svg" xmlns:xlink="http://www.w3.org/1999/xlink" x="0px" y="0px"
	 viewBox="0 0 512 512" style="enable-background:new 0 0 512 512;" xml:space="preserve">
<path style="fill:#D21E1E;" d="M256.002,468.376C579.5,261.967,489.785,78.076,404.126,50.659
	c-15.076-4.813-29.245-7.036-42.435-7.036c-38.95,0-69.464,19.354-90.318,48.445c27.592,41.711,40.661,70.124,41.26,71.437
	c2.718,5.962,0.889,13.017-4.387,16.904l-62.762,46.262l54.739,46.441c2.875,2.441,4.632,5.946,4.865,9.708
	c0.234,3.764-1.076,7.46-3.629,10.235l-46.76,50.866l14.236,37.01c2.747,7.143-0.816,15.161-7.959,17.908
	c-1.635,0.629-3.319,0.927-4.971,0.927c-5.569,0-10.819-3.379-12.937-8.886l-17.321-45.034c-1.89-4.916-0.831-10.476,2.731-14.352
	l42.819-46.579L214.2,236.469c-3.229-2.74-5.028-6.809-4.883-11.04c0.144-4.233,2.217-8.169,5.628-10.68l67.501-49.754
	c-6.52-12.584-19.516-36.13-39.377-65.392c-23.094-31.058-54.147-55.425-96.117-55.429c-12.087,0-25.074,2.02-39.043,6.481
	C22.211,78.076-67.503,261.967,256.002,468.376z"/>
<path d="M510.488,152.21c-4.018-30.961-16.02-59.633-34.708-82.91c-17.281-21.526-39.729-37.519-63.206-45.034
	c-17.368-5.546-34.483-8.356-50.884-8.356c-42.859,0-80.508,18.928-107.717,53.125c-8.229-9.39-16.845-17.536-25.796-24.376
	C203.7,25.952,176.371,16.466,146.95,16.464c-15.308,0-31.283,2.622-47.478,7.796c-23.498,7.519-45.952,23.511-63.239,45.038
	C17.54,92.575,5.536,121.247,1.513,152.211c-6.551,50.456,8.257,105.438,42.821,159.006
	C84.35,373.232,150.549,433.966,241.096,491.74c4.545,2.901,9.727,4.351,14.906,4.351c5.181,0,10.36-1.45,14.906-4.351
	c90.543-57.772,156.744-118.51,196.759-180.524C502.23,257.649,517.038,202.666,510.488,152.21z M146.948,44.177
	c41.972,0.003,73.023,24.371,96.117,55.429c19.864,29.262,32.86,52.808,39.377,65.392l-67.501,49.754
	c-3.411,2.512-5.484,6.447-5.628,10.68c-0.145,4.232,1.654,8.3,4.883,11.04l57.098,48.445l-42.819,46.579
	c-3.565,3.876-4.621,9.436-2.732,14.352l17.321,45.034c2.118,5.506,7.368,8.886,12.937,8.886c1.652,0,3.336-0.298,4.971-0.927
	c7.143-2.747,10.706-10.765,7.959-17.908l-14.236-37.01l46.76-50.866c2.553-2.777,3.863-6.471,3.629-10.235
	c-0.234-3.764-1.988-7.268-4.865-9.708l-54.739-46.441l62.762-46.262c5.276-3.887,7.105-10.94,4.387-16.904
	c-0.601-1.313-13.67-29.726-41.26-71.437c20.854-29.091,51.367-48.445,90.318-48.445c13.19,0,27.358,2.222,42.435,7.036
	c85.659,27.417,175.375,211.309-148.123,417.717C-67.503,261.967,22.211,78.076,107.905,50.659
	C121.874,46.197,134.861,44.177,146.948,44.177z"/>
<g>
</g>
<g>
</g>
<g>
</g>
<g>
</g>
<g>
</g>
<g>
</g>
<g>
</g>
<g>
</g>
<g>
</g>
<g>
</g>
<g>
</g>
<g>
</g>
<g>
</g>
<g>
</g>
<g>
</g>
</svg>
