<?xml version="1.0" encoding="iso-8859-1"?>
<!-- Generator: Adobe Illustrator 19.0.0, SVG Export Plug-In . SVG Version: 6.00 Build 0)  -->
<svg version="1.1" id="Layer_1" xmlns="http://www.w3.org/2000/svg" xmlns:xlink="http://www.w3.org/1999/xlink" x="0px" y="0px"
	 viewBox="0 0 511.964 511.964" style="enable-background:new 0 0 511.964 511.964;" xml:space="preserve">
<g transform="translate(1 1)">
	<path style="fill:#FFDD09;" d="M446.613,84.315c-25.6-29.867-58.027-51.2-97.28-51.2c-0.853,0-58.88,38.4-76.8,85.333l17.067,51.2
		l0,0l-30.72,52.907l30.72,52.053l0,0l-30.72,52.907l30.72,52.053l0,0l-30.72,52.907l13.653,44.373
		c0,0,126.293-164.693,160.427-197.973C497.813,214.022,482.453,124.422,446.613,84.315"/>
	<path style="fill:#FD9808;" d="M472.213,84.315c-25.6-29.867-58.027-51.2-98.133-51.2c-4.267,0-7.68,0-11.947,0.853
		c33.28,4.267,61.44,23.893,83.627,49.493c34.987,40.96,51.2,129.707-14.507,195.413c-26.453,26.453-124.587,131.413-166.4,177.493
		l7.68,20.48c0,0,151.893-164.693,186.027-197.973C523.413,214.022,508.053,124.422,472.213,84.315"/>
	<path style="fill:#FFDD09;" d="M255.466,379.569L255.466,379.569l-30.72-52.907l30.72-52.907l0,0l-30.72-52.053l30.72-52.053l0,0
		l-17.067-51.2c-17.92-46.08-81.067-85.333-75.947-85.333c-39.253,0-71.68,21.333-97.28,51.2
		c-36.693,41.813-51.2,130.56,14.507,195.413c33.28,32.427,158.72,197.12,158.72,197.12l-13.653-44.373L255.466,379.569z"/>
	<path style="fill:#FFFFFF;" d="M78.826,278.875c-65.707-64-51.2-153.6-14.507-195.413c23.04-25.6,51.2-45.227,83.627-49.493
		c-2.56-0.853-6.827-0.853-11.093-0.853c-39.253,0-71.68,21.333-97.28,51.2c-36.693,41.813-51.2,130.56,14.507,195.413
		c33.28,32.427,184.32,197.12,184.32,197.12l-12.8-41.813C178.666,384.689,101.866,301.062,78.826,278.875"/>
	<path d="M238.4,485.382c-2.56,0-4.267-0.853-5.973-2.56c-1.707-1.707-151.893-165.547-185.173-197.973
		c-72.533-70.827-51.2-165.547-14.507-206.507c31.573-35.84,66.56-53.76,104.107-53.76c55.467,0,93.013,46.933,109.227,90.453
		l17.067,51.2c0.853,2.56,0.853,5.12-0.853,7.68l-28.16,48.64l28.16,47.787c1.707,2.56,1.707,5.973,0,8.533l-28.16,48.64
		l28.16,47.787c1.707,2.56,1.707,5.973,0,8.533l-29.013,49.493l11.947,40.96c0.853,3.413-0.853,7.68-4.267,10.24
		C240.96,485.382,240.106,485.382,238.4,485.382z M136.853,41.649c-32.427,0-63.147,16.213-91.307,47.787
		C13.12,126.129-4.8,209.755,59.2,272.902c25.6,24.747,115.2,122.027,159.573,170.667l-2.56-9.387c-0.853-2.56,0-5.12,0.853-6.827
		l28.16-48.64l-27.307-46.933c-1.707-2.56-1.707-5.973,0-8.533l28.16-48.64l-28.16-48.64c-1.707-2.56-1.707-5.973,0-8.533
		l28.16-49.493l-16.213-47.787C216.213,82.609,183.786,41.649,136.853,41.649z"/>
	<path d="M272.533,485.382c-0.853,0-1.707,0-1.707,0c-2.56-0.853-5.12-2.56-5.973-5.973L251.2,435.035
		c-0.853-2.56,0-5.12,0.853-6.827l28.16-48.64l-28.16-47.787c-1.707-2.56-1.707-5.973,0-8.533l28.16-48.64l-28.16-48.64
		c-1.707-2.56-1.707-5.973,0-8.533l28.16-49.493L264,120.155c-0.853-1.707-0.853-4.267,0-5.973
		c21.333-53.76,64.853-89.6,110.08-89.6c37.547,0,74.24,18.773,104.107,53.76l0,0c35.84,41.813,56.32,135.68-14.507,206.507
		c-33.28,33.28-183.467,196.267-185.173,197.973C276.8,484.529,275.093,485.382,272.533,485.382z M268.266,433.329l7.68,26.453
		c34.987-37.547,147.627-158.72,175.787-186.88c63.147-63.147,45.227-146.773,13.653-183.467l0,0
		C438.08,57.862,407.36,41.649,374.08,41.649c-37.547,0-74.24,29.867-93.013,76.8l16.213,47.787c0.853,2.56,0.853,5.12-0.853,7.68
		l-28.16,48.64l28.16,47.787c1.707,2.56,1.707,5.973,0,8.533l-28.16,48.64l28.16,47.787c1.707,2.56,1.707,5.973,0,8.533
		L268.266,433.329z"/>
</g>
<g>
</g>
<g>
</g>
<g>
</g>
<g>
</g>
<g>
</g>
<g>
</g>
<g>
</g>
<g>
</g>
<g>
</g>
<g>
</g>
<g>
</g>
<g>
</g>
<g>
</g>
<g>
</g>
<g>
</g>
</svg>
