<?xml version="1.0"?><svg version="1.1" id="圖層_1" xmlns="http://www.w3.org/2000/svg" x="0" y="0" viewBox="0 0 100 100" xml:space="preserve"><path d="M50 24.019a.298.298 0 0 0 .014-.024l-.073-.072.059.096z" fill="none"/><path d="M57.789 16.037l-.437.365c.165-.102.326-.21.494-.308l-.057-.057z" fill="#ed1e79"/><path d="M90 34.613a21.48 21.48 0 0 0-.451-4.378c-2.021-9.724-10.635-17.032-20.959-17.032a21.304 21.304 0 0 0-10.743 2.891c-.168.098-.329.206-.494.308-.242.149-.488.292-.723.451a21.31 21.31 0 0 0-3.958 3.467 21.68 21.68 0 0 0-2.657 3.675l3.775 7.683-7.821 7.821 7.821 7.821-7.821 7.821 7.821 7.821-7.821 7.821 7.821 7.821-3.787 8.193c.049-.035 13.652-9.784 24.975-22.287 5.272-5.822 10.046-12.239 12.73-18.553 1.429-3.362 2.268-6.695 2.268-9.892 0-.159-.01-.316-.012-.474.014-.327.036-.65.036-.978z" fill="#ed1e79"/><path d="M45.968 39.499l7.821-7.821L50 24.019c-.005.008.005-.008 0 0l-.058-.095a21.469 21.469 0 0 0-6.571-7.07 21.311 21.311 0 0 0-11.96-3.65c-10.324 0-18.938 7.308-20.959 17.032A21.392 21.392 0 0 0 10 34.613c0 .328.022.651.037.975-.002.159-.012.315-.012.474C10.025 58.179 50 86.797 50 86.797l.002-.001 3.787-8.193-7.821-7.821 7.821-7.821-7.821-7.821 7.821-7.821-7.821-7.82z" fill="#9e005d"/><metadata xmlns:d="https://loading.io/stock/">
<d:name>heart</d:name>
<d:tags>heartbreak,love,sad,like,favorite,heart,people</d:tags>
<d:license>by</d:license>
<d:slug>aon6td</d:slug>
</metadata></svg>