<?xml version="1.0"?><svg version="1.1" id="圖層_1" xmlns="http://www.w3.org/2000/svg" x="0" y="0" viewBox="0 0 100 100" xml:space="preserve"><g><path d="M50 95c-2.332 0-4.223-1.724-4.223-3.85V63.96c0-2.126 1.891-3.85 4.223-3.85s4.223 1.724 4.223 3.85v27.19c0 2.126-1.891 3.85-4.223 3.85z" fill="#ed1e79"/></g><g><path d="M65.836 79.032H34.164a4.223 4.223 0 0 1 0-8.446h31.672a4.223 4.223 0 1 1 0 8.446z" fill="#ed1e79"/></g><g><path d="M50 69.12l-2.258-1.617c-3.25-2.326-31.752-23.254-31.752-41.394 0-.105.003-.21.007-.314l-.002-.035a15.241 15.241 0 0 1-.023-.743c0-1.369.142-2.745.421-4.089C18.311 11.698 26.552 5 35.988 5a19.919 19.919 0 0 1 14.011 5.733A19.92 19.92 0 0 1 64.012 5c9.436 0 17.677 6.698 19.595 15.928.279 1.343.421 2.719.421 4.089 0 .25-.011.497-.023.743l-.002.035c.004.128.007.221.007.314 0 18.14-28.502 39.068-31.752 41.394L50 69.12zM35.988 12.758c-5.779 0-10.825 4.1-11.999 9.748-.172.826-.259 1.67-.259 2.51 0 .118.008.235.013.352l.015.313-.008.378C23.748 37.128 41 52.623 49.999 59.517c8.999-6.901 26.253-22.403 26.253-33.408l-.009-.429.015-.313c.006-.116.013-.233.013-.352 0-.84-.087-1.684-.259-2.51-1.174-5.649-6.221-9.749-12-9.749a12.19 12.19 0 0 0-6.845 2.088 12.394 12.394 0 0 0-3.799 4.11L50 24.852l-3.368-5.897a12.392 12.392 0 0 0-3.799-4.11 12.194 12.194 0 0 0-6.845-2.087z" fill="#ed1e79"/></g><metadata xmlns:d="https://loading.io/stock/">
<d:name>lady</d:name>
<d:tags>girl,love,heart,woman,female,lady,people</d:tags>
<d:license>by</d:license>
<d:slug>f4le98</d:slug>
</metadata></svg>