<?xml version="1.0"?><svg version="1.1" id="圖層_1" xmlns="http://www.w3.org/2000/svg" x="0" y="0" viewBox="0 0 100 100" xml:space="preserve"><path fill="#ed1c24" d="M39.588 22.139l-1.128-3.124-4.629 3.899 3.748 2.635z"/><path fill="#ed1e79" d="M41.921 28.603l-2.333-6.464-2.009 3.41z"/><path d="M41.942 58.433l-19.927 2.616c.8.961 1.62 1.912 2.455 2.846l14.698.243 2.793-5.692-.019-.013z" fill="#ed1e79"/><path d="M39.588 22.139l3.293-5.591c-.284-.181-.566-.365-.859-.532l-3.561 2.999 1.127 3.124z" fill="#ed1e79"/><path d="M41.921 28.603l10.915 7.675 11.066-22.555a21.296 21.296 0 0 0-7.272 3.13A21.505 21.505 0 0 0 50 24.019a21.505 21.505 0 0 0-6.63-7.166c-.159-.108-.328-.202-.49-.306l-3.293 5.591 2.334 6.465z" fill="#9e005d"/><path d="M25.162 46.634l-2.418-1.7L18.77 56.92l.186.251 6.206-10.537z" fill="#ed1e79"/><path d="M18.956 57.172a90.39 90.39 0 0 0 3.059 3.878l19.927-2.616-16.779-11.8-6.207 10.538z" fill="#ed1c24"/><path fill="#ed1e79" d="M29.001 40.115l8.578-14.566-3.748-2.635-5.252 4.423-4.449 13.418z"/><path fill="#ed1e79" d="M41.96 58.446l.008-.016-.026.003z"/><path fill="#9e005d" d="M29.001 40.115l16.303-2.14-3.383-9.372-4.342-3.054z"/><path fill="#f15a24" d="M52.465 37.035l.371-.757-10.915-7.675 3.383 9.372z"/><path fill="#ed1c24" d="M24.13 40.755l-1.386 4.178 2.418 1.701 3.839-6.519z"/><path fill="#ed1e79" d="M29.001 40.115l-3.839 6.519 16.78 11.799.026-.003 6.176-12.588-2.84-7.867z"/><path fill="#ed1c24" d="M48.144 45.842l4.321-8.807-7.161.94z"/><path d="M17.955 41.565l-3.417-2.403-3.59 3.024c.027.096.052.192.081.289l6.926-.91z" fill="#f15a24"/><path d="M17.955 41.565l-6.926.909c1.42 4.783 4.24 9.703 7.741 14.446l3.974-11.987-4.789-3.368z" fill="#9e005d"/><path fill="#ed1c24" d="M28.579 27.337L14.538 39.162l3.417 2.403 6.175-.81z"/><path fill="#ed1e79" d="M24.13 40.755l-6.175.81 4.789 3.368z"/><path d="M80.384 33.369l9.467-1.243a21.712 21.712 0 0 0-.301-1.891 21.404 21.404 0 0 0-7.431-12.212l-4.51 7.658 2.775 7.688z" fill="#9e005d"/><path fill="#ed1c24" d="M39.168 64.138l11.148.184-8.356-5.876z"/><path d="M82.118 18.023a21.305 21.305 0 0 0-8.819-4.28l4.309 11.938 4.51-7.658z" fill="#ed1e79"/><path d="M81.558 56.476a69.281 69.281 0 0 0 2.428-3.562l-6.315.829 3.887 2.733z" fill="#f15a24"/><path fill="#ed1e79" d="M72.468 34.408l7.916-1.039-2.776-7.688z"/><path d="M53.684 36.875l18.784-2.466 5.14-8.727-4.309-11.938a21.422 21.422 0 0 0-4.709-.54c-1.611 0-3.179.183-4.688.52L52.836 36.278l.848.597z" fill="#ed1c24"/><path d="M86.121 49.263c2.379-4.474 3.854-8.957 3.854-13.201 0-.159-.01-.316-.012-.474.015-.324.037-.647.037-.975 0-.842-.055-1.67-.15-2.487l-9.467 1.243 5.738 15.894z" fill="#f15a24"/><path d="M80.384 33.369l-7.915 1.039-6.529 11.085 11.731 8.249 6.315-.829a54.596 54.596 0 0 0 2.135-3.65l-5.737-15.894z" fill="#ed1c24"/><path fill="#9e005d" d="M65.94 45.493l6.528-11.085-18.784 2.467z"/><path fill="#ed1e79" d="M54.842 64.397l-.013-.037-.021.036z"/><path fill="#ed1e79" d="M41.968 58.43l-.008.016 8.356 5.876 4.492.074.021-.036-2.626-7.274z"/><path d="M59.692 56.103l-4.863 8.257.013.037 19.938.329c2.408-2.646 4.718-5.418 6.777-8.25l-3.887-2.733-17.978 2.36z" fill="#ed1e79"/><path fill="#ed1c24" d="M54.829 64.36l4.863-8.257-7.489.983z"/><path fill="#ed1e79" d="M53.684 36.875l-.848-.597-.371.757z"/><path fill="#9e005d" d="M52.203 57.086l-4.059-11.244-6.176 12.588z"/><path fill="#9e005d" d="M77.671 53.743l-11.731-8.25-6.248 10.61z"/><path fill="#ed1e79" d="M52.465 37.035l-4.321 8.807 4.059 11.244 7.489-.983 6.248-10.61-12.256-8.618z"/><path d="M33.831 22.914l4.629-3.899-1.866-5.169a21.325 21.325 0 0 0-3.357-.56l-2.476 7.469 3.07 2.159z" fill="#ed1e79"/><path d="M42.021 16.016a21.282 21.282 0 0 0-5.427-2.17l1.866 5.169 3.561-2.999z" fill="#f15a24"/><path fill="#f15a24" d="M30.761 20.755l-2.182 6.582 5.252-4.423z"/><path d="M10.027 35.99l-.002.073c0 1.997.33 4.047.923 6.123l3.59-3.024-4.511-3.172z" fill="#ed1e79"/><path d="M33.237 13.286a21.643 21.643 0 0 0-1.827-.083c-3.112 0-6.063.674-8.731 1.868l8.082 5.683 2.476-7.468z" fill="#ed1c24"/><path d="M28.579 27.337l2.183-6.583-8.082-5.683c-6.182 2.767-10.816 8.371-12.228 15.164A21.41 21.41 0 0 0 10 34.613c0 .328.022.651.037.975-.002.134-.008.268-.01.402l4.511 3.172 14.041-11.825z" fill="#9e005d"/><path d="M34.38 73.896l4.787-9.758-14.697-.242c3.219 3.605 6.646 6.992 9.91 10z" fill="#9e005d"/><path d="M53.523 66.578l-9.295 15.783C47.709 85.156 50 86.797 50 86.797s4.286-3.069 10.051-7.972l-3.704-10.262-2.824-1.985z" fill="#9e005d"/><path d="M50.316 64.322l-11.148-.184-4.787 9.758a192.305 192.305 0 0 0 9.848 8.465l9.295-15.783-3.208-2.256z" fill="#ed1e79"/><path d="M56.346 68.563l3.704 10.262a186.885 186.885 0 0 0 4.835-4.257l-8.539-6.005z" fill="#f15a24"/><path fill="#ed1e79" d="M53.523 66.578l2.823 1.985-1.504-4.166-.034-.001z"/><path fill="#ed1c24" d="M50.316 64.322l3.207 2.256 1.285-2.182z"/><path d="M64.886 74.568c3.231-2.945 6.651-6.279 9.894-9.842l-19.938-.329 1.504 4.166 8.54 6.005z" fill="#9e005d"/><metadata xmlns:d="https://loading.io/stock/">
<d:name>heartbreak</d:name>
<d:tags>emotion,feeling,love,broken,hurt,heartbreak,people</d:tags>
<d:license>by</d:license>
<d:slug>9p480i</d:slug>
</metadata></svg>