<?xml version="1.0" encoding="utf-8"?><!--Generator: Adobe Illustrator 21.0.0, SVG Export Plug-In . SVG Version: 6.00 Build 0)--><svg version="1.1" id="圖層_1" xmlns="http://www.w3.org/2000/svg" xmlns:xlink="http://www.w3.org/1999/xlink" x="0px" y="0px" viewBox="0 0 100 100" enable-background="new 0 0 100 100" xml:space="preserve"><path fill="#C33837" stroke="#333435" stroke-width="3.5" stroke-linecap="round" stroke-linejoin="round" stroke-miterlimit="10" d=" M76.2,44.1C76.2,63.4,50,72,50,77c0-5.5-26.2-13.6-26.2-32.9S50,25,50,43.4C50,25.3,76.2,24.8,76.2,44.1z"/><g><path fill="none" stroke="#333435" stroke-width="3.5" stroke-linecap="round" stroke-linejoin="round" stroke-miterlimit="10" d=" M20.9,27.5C17.8,32.6,16,38.6,16,44.9c0,6.5,1.8,12.5,4.9,17.6"/><path fill="none" stroke="#333435" stroke-width="3.5" stroke-linecap="round" stroke-linejoin="round" stroke-miterlimit="10" d=" M79.2,27.7c3,5.1,4.7,11,4.7,17.3c0,6.4-1.8,12.3-4.8,17.4"/></g><g><path fill="none" stroke="#333435" stroke-width="3.5" stroke-linecap="round" stroke-linejoin="round" stroke-miterlimit="10" d=" M86.6,23.3c3.8,6.3,5.9,13.7,5.9,21.6c0,8-2.2,15.5-6,21.8"/><path fill="none" stroke="#333435" stroke-width="3.5" stroke-linecap="round" stroke-linejoin="round" stroke-miterlimit="10" d=" M13.5,23.1c-3.8,6.4-6,13.8-6,21.8c0,8.1,2.2,15.6,6.1,22"/></g><metadata xmlns:d="https://loading.io/stock/">
<d:name>heart</d:name>
<d:tags>heart,enchant,vibrate,active,live,life,beat</d:tags>
<d:license>by</d:license>
<d:slug>oodnac</d:slug>
</metadata></svg>