<?xml version="1.0"?><svg version="1.1" id="圖層_1" xmlns="http://www.w3.org/2000/svg" x="0" y="0" viewBox="0 0 100 100" xml:space="preserve"><path d="M70 15.595h0c-11.046 0-20 8.954-20 20 0-11.046-8.954-20-20-20h0c-11.046 0-20 8.954-20 20v.265c0 22.091 30.335 48.545 40 48.545S90 57.951 90 35.86v-.265c0-11.046-8.954-20-20-20z" fill="#e15b64" stroke="#333" stroke-width="3.5" stroke-linecap="round" stroke-linejoin="round" stroke-miterlimit="10"/><path d="M20.518 47.752c.377.831.791 1.659 1.236 2.48" stroke-linecap="round" fill="none" stroke="#fff" stroke-width="3.5" stroke-linejoin="round" stroke-miterlimit="10"/><path d="M26.369 23.738C21.411 26.185 18 31.293 18 37.196v.199" stroke-linecap="round" fill="none" stroke="#fff" stroke-width="3.5" stroke-linejoin="round" stroke-miterlimit="10"/><path d="M71.737 15.683A103.909 103.909 0 0 1 73 31.833c0 18.34-4.718 35.097-12.501 47.974C73.091 71.275 90 52.354 90 35.86v-.265c0-10.459-8.032-19.03-18.263-19.912z" opacity=".1" stroke-width="3.5" stroke-linejoin="round" stroke-miterlimit="10" stroke="#000" stroke-linecap="round"/><metadata xmlns:d="https://loading.io/stock/">
<d:name>card</d:name>
<d:tags>card,poker,gambling,casino,game,suit,french deck,heart</d:tags>
<d:license>by</d:license>
<d:slug>vdlo49</d:slug>
</metadata></svg>