<?xml version="1.0"?><svg version="1.1" id="圖層_1" xmlns="http://www.w3.org/2000/svg" x="0" y="0" viewBox="0 0 100 100" xml:space="preserve"><path d="M76.367 42.112H23.633v40.233a5.267 5.267 0 0 0 5.267 5.267h42.2a5.267 5.267 0 0 0 5.267-5.267V42.112z" fill="#e15b64" stroke="#333" stroke-width="3.5" stroke-miterlimit="10"/><path d="M68.022 42.112v8.722H23.633v7.615h44.389v15.847c0 7.355-5.962 13.317-13.317 13.317H71.1a5.267 5.267 0 0 0 5.267-5.267V42.111h-8.345z" opacity=".1" stroke="#000" stroke-width="3.5" stroke-miterlimit="10"/><path d="M24.68 10.097c-.087.029-.174.06-.26.093-1.641.626-3.224 5.227-4.183 6.886-1.024 1.772 3.906 6.538 11.012 10.646 6.77 3.913 14.065 4.186 15.359 3.124l3.022-5.228c.615-1.064-3.539-7.173-10.645-11.28-3.814-2.205-9.65-5.804-14.305-4.241z" stroke-miterlimit="10" fill="#f8b26a" stroke="#333" stroke-width="3.5"/><path d="M35.007 20.721c4.29 2.48 6.648 6.427 6.648 6.427s-4.597-.073-8.887-2.553-7.266-5.357-6.648-6.427c.618-1.07 4.597.073 8.887 2.553z" opacity=".1"/><path d="M75.32 10.097c.087.029.174.06.26.093 1.641.626 3.224 5.227 4.183 6.886 1.024 1.772-3.906 6.538-11.012 10.646-6.77 3.913-14.065 4.186-15.359 3.124l-3.022-5.228c-.615-1.064 3.539-7.173 10.645-11.28 3.814-2.205 9.65-5.804 14.305-4.241z" stroke-miterlimit="10" fill="#f8b26a" stroke="#333" stroke-width="3.5"/><path d="M64.993 20.721c-4.29 2.48-6.648 6.427-6.648 6.427s4.597-.073 8.887-2.553 7.266-5.357 6.648-6.427c-.618-1.07-4.597.073-8.887 2.553z" opacity=".1"/><path d="M80.868 50.833H19.132a2.983 2.983 0 0 1-2.983-2.983V34.095a2.983 2.983 0 0 1 2.983-2.983h61.735a2.983 2.983 0 0 1 2.983 2.983V47.85a2.981 2.981 0 0 1-2.982 2.983z" fill="#e15b64" stroke="#333" stroke-width="3.048" stroke-miterlimit="10"/><path d="M80.868 31.112H78v12.472a7.25 7.25 0 0 1-7.25 7.25h10.118a2.983 2.983 0 0 0 2.983-2.983V34.095a2.983 2.983 0 0 0-2.983-2.983z" opacity=".1" stroke="#000" stroke-width="3.048" stroke-miterlimit="10"/><path stroke-miterlimit="10" fill="#f8b26a" stroke="#333" stroke-width="3.5" d="M41.5 31.112h17v56.5h-17z"/><path stroke-miterlimit="10" stroke-width="2.983" opacity=".1" stroke="#000" d="M41.5 52.667h17v6.195h-17z"/><metadata xmlns:d="https://loading.io/stock/">
<d:name>gift</d:name>
<d:tags>gift,present,giveaway,free,birthday,box,ribbon,souvenir,handsel,award,bonus,benefit</d:tags>
<d:license>by</d:license>
<d:slug>phio8m</d:slug>
</metadata></svg>