<?xml version="1.0"?><svg xmlns="http://www.w3.org/2000/svg" viewBox="0 0 100 100"><g><g><path d="M58.7 30.9c0-4.4-3.6-8-8-8s-8 3.6-8 8v.5h15.9c.1-.2.1-.4.1-.5z" fill="#f15a24" stroke="#000" stroke-width="3" stroke-miterlimit="10"/></g><path d="M73.6 10.1C68 9.4 63.9 13 63 13.8c-4.4 3.9-7.2 10.8-5 13.8 3 3.9 12.5-.1 14.4-.9.1 0 .1-.1.2-.1 6.1-2.7 11.3-5 11.7-8 .5-3.3-5-7.9-10.7-8.5z" fill="#f15a24" stroke="#000" stroke-width="3" stroke-miterlimit="10"/><path d="M26.4 10.1c5.7-.6 9.8 3 10.7 3.7 4.4 3.9 7.2 10.8 5 13.8-3 3.9-12.5-.1-14.4-.9-.1 0-.1-.1-.2-.1-6.1-2.7-11.3-5-11.7-8-.6-3.3 4.9-7.9 10.6-8.5z" fill="#f15a24" stroke="#000" stroke-width="3" stroke-miterlimit="10"/><path d="M58.7 27.1c.5-1.2 2.9-6.1 8.5-8.5 3.7-1.5 7-1.3 8.5-1.1" fill="#f15a24" stroke="#000" stroke-width="3" stroke-linecap="round" stroke-miterlimit="10"/><path d="M40.6 27.1c-.5-1.2-2.9-6.1-8.5-8.5-3.7-1.5-7-1.3-8.5-1.1" fill="#f15a24" stroke="#000" stroke-width="3" stroke-linecap="round" stroke-miterlimit="10"/></g><g><path fill="#8cc63f" stroke="#000" stroke-width="3" stroke-linejoin="round" stroke-miterlimit="10" d="M18.8 31.4h63.9v10.7H18.8z"/><path fill="#009245" stroke="#000" stroke-width="3" stroke-miterlimit="10" d="M42.7 31.4h16v10.7h-16z"/></g><g><path fill="#8cc63f" stroke="#000" stroke-width="3" stroke-linejoin="round" stroke-miterlimit="10" d="M26.2 42h49v48h-49z"/><path fill="#009245" stroke="#000" stroke-width="3" stroke-miterlimit="10" d="M47.5 42h6.4v48h-6.4z"/></g><metadata xmlns:d="https://loading.io/stock/">
<d:name>christmas present</d:name>
<d:tags>christmas present,gift,surprise,boxing day,love</d:tags>
<d:license>by</d:license>
<d:slug>keney5</d:slug>
</metadata></svg>