<?xml version="1.0"?><svg version="1.1" id="圖層_1" xmlns="http://www.w3.org/2000/svg" x="0" y="0" viewBox="0 0 100 100" xml:space="preserve"><path d="M76.367 43.448H23.633v40.233a5.267 5.267 0 0 0 5.267 5.267h42.2a5.267 5.267 0 0 0 5.267-5.267V43.448z" fill="#e0e0e0" stroke-width="3.5" stroke="#333" stroke-miterlimit="10"/><path d="M67.867 43.448v15.25H23.633v6.969h44.235v12.54c0 5.932-4.809 10.741-10.741 10.741H71.1a5.267 5.267 0 0 0 5.267-5.267V43.448h-8.5z" opacity=".1" stroke="#000" stroke-width="3.5" stroke-miterlimit="10"/><path d="M24.68 11.434c-.087.029-.174.06-.26.093-1.641.626-3.224 5.227-4.183 6.886-1.024 1.772 3.906 6.538 11.012 10.646 6.77 3.913 14.065 4.186 15.359 3.124l3.022-5.228c.615-1.064-3.539-7.173-10.645-11.28-3.814-2.206-9.65-5.804-14.305-4.241z" fill="#e15b64" stroke="#333" stroke-width="3.5" stroke-miterlimit="10"/><path d="M35.007 22.057c4.29 2.48 6.648 6.427 6.648 6.427s-4.597-.073-8.887-2.553-7.266-5.357-6.648-6.427c.618-1.069 4.597.073 8.887 2.553z" fill="#333"/><path d="M75.32 11.434c.087.029.174.06.26.093 1.641.626 3.224 5.227 4.183 6.886 1.024 1.772-3.906 6.538-11.012 10.646-6.77 3.913-14.065 4.186-15.359 3.124l-3.022-5.228c-.615-1.064 3.539-7.173 10.645-11.28 3.814-2.206 9.65-5.804 14.305-4.241z" fill="#e15b64" stroke="#333" stroke-width="3.5" stroke-miterlimit="10"/><path d="M64.993 22.057c-4.29 2.48-6.648 6.427-6.648 6.427s4.597-.073 8.887-2.553 7.266-5.357 6.648-6.427-4.597.073-8.887 2.553z" fill="#333"/><path d="M80.425 58.448h-60.85a3.425 3.425 0 0 1-3.425-3.425V35.874a3.425 3.425 0 0 1 3.425-3.425h60.851a3.425 3.425 0 0 1 3.425 3.425v19.149a3.425 3.425 0 0 1-3.426 3.425z" stroke-miterlimit="10" fill="#fff" stroke="#333" stroke-width="3.5"/><path d="M80.425 32.448H77.35v17.934a8.066 8.066 0 0 1-8.066 8.066h11.141a3.425 3.425 0 0 0 3.425-3.425V35.874a3.425 3.425 0 0 0-3.425-3.426z" opacity=".1" stroke="#000" stroke-width="3.5" stroke-miterlimit="10"/><path fill="#e15b64" stroke="#333" stroke-width="3.5" stroke-miterlimit="10" d="M41.5 32.448h17v56.5h-17z"/><path fill="none" stroke-linecap="round" stroke-width="3.5" stroke="#333" stroke-miterlimit="10" d="M65.962 51.583h10"/><path fill="none" stroke-linecap="round" stroke-width="3.5" stroke="#333" stroke-miterlimit="10" d="M50 71v7"/><path fill="none" stroke-linecap="round" stroke-width="3.5" stroke="#333" stroke-miterlimit="10" d="M50 41v19.698"/><metadata xmlns:d="https://loading.io/stock/">
<d:name>gift</d:name>
<d:tags>gift,present,giveaway,free,birthday,box,ribbon,souvenir,handsel,award,bonus,benefit</d:tags>
<d:license>by</d:license>
<d:slug>pz39ku</d:slug>
</metadata></svg>