<?xml version="1.0"?><svg xmlns="http://www.w3.org/2000/svg" viewBox="0 0 100 100"><g><path fill="#f5e169" d="M46.621 51.493h7.155v17.223h-7.155z"/><path d="M46.621 51.493v3.092h1.15a3.247 3.247 0 0 1 3.247 3.247v10.884h2.758V51.493h-7.155z" opacity=".1"/></g><g><path d="M66.941 41.266c11.445-.875 18.438-12.119 18.438-22.988h-10.13" fill="none" stroke="#f7b26a" stroke-width="3" stroke-linecap="round" stroke-linejoin="round" stroke-miterlimit="10"/><path d="M66.941 41.266c11.445-.875 18.438-12.119 18.438-22.988h-10.13" opacity=".1" fill="none" stroke="#000" stroke-width="3" stroke-linecap="round" stroke-linejoin="round" stroke-miterlimit="10"/></g><path d="M33.059 41.266c-11.445-.876-18.438-12.119-18.438-22.989h10.13" fill="none" stroke="#f7b26a" stroke-width="3" stroke-linecap="round" stroke-linejoin="round" stroke-miterlimit="10"/><g><path d="M50.199 53.13c14.713 0 26.64-21.945 26.64-43.13h-53.28c0 21.186 11.927 43.13 26.64 43.13z" fill="#f5e169"/><path d="M30.762 13.819l-3.467.068c.327 16.613 7.529 33.686 15.995 33.52-6.528-2.166-12.222-18.029-12.528-33.588z" opacity=".5" fill="#fff"/><path fill="#fcf4e4" d="M50.199 18.392l3.31 6.707 7.4 1.075-5.355 5.22 1.264 7.371-6.619-3.48-6.62 3.48 1.264-7.371-5.355-5.22 7.401-1.075z"/><path d="M61.943 10c.24 2.07.369 4.2.369 6.379 0 17.204-7.657 31.508-20.144 34.52 2.535 1.432 5.232 2.231 8.031 2.231 14.713 0 26.64-21.945 26.64-43.13H61.943z" opacity=".1"/></g><g><path d="M64.509 90H35.292V76.839a8.123 8.123 0 0 1 8.123-8.123h12.972a8.123 8.123 0 0 1 8.123 8.123V90z" fill="#f47e5f"/><path d="M58.462 68.994v8.319a8.418 8.418 0 0 1-8.418 8.418H35.292V90h29.217V76.839c0-3.768-2.568-6.927-6.047-7.845z" opacity=".1"/></g><path d="M37.823 15.385l-3.214-.229a4.97 4.97 0 0 1-4.608-4.655l-.226-3.703a.433.433 0 0 0-.433-.407h-.097a.434.434 0 0 0-.433.407l-.226 3.703a4.97 4.97 0 0 1-4.608 4.655l-3.214.229a.45.45 0 0 0-.419.358c-.044.26.145.49.396.508l3.237.231a4.97 4.97 0 0 1 4.608 4.655l.226 3.703a.433.433 0 0 0 .433.407h.097a.434.434 0 0 0 .433-.407l.226-3.703a4.97 4.97 0 0 1 4.608-4.655l3.237-.231a.433.433 0 0 0 .396-.508.449.449 0 0 0-.419-.358z" fill="#fff"/><metadata xmlns:d="https://loading.io/stock/">
<d:name>trophy</d:name>
<d:tags>trophy,winner,champion,top,best,rank,prize,award,victory,tribute</d:tags>
<d:license>by</d:license>
<d:slug>p52zgh</d:slug>
</metadata></svg>