<?xml version="1.0"?><svg version="1.1" id="Layer_1" xmlns="http://www.w3.org/2000/svg" x="0" y="0" viewBox="0 0 100 100" xml:space="preserve"><g><path d="M71.41 54.5h-5.727a3 3 0 1 1 0-6h5.727c7.247 0 13.594-5.146 15.093-12.237.281-1.333-.049-2.705-.908-3.764s-2.132-1.666-3.495-1.666H65.683a3 3 0 1 1 0-6H82.1a10.46 10.46 0 0 1 8.156 3.887 10.458 10.458 0 0 1 2.117 8.783C90.292 47.352 81.476 54.5 71.41 54.5z" fill="#f7b26a" stroke="#323232" stroke-width="3.5" stroke-miterlimit="10"/></g><g opacity=".2"><path d="M71.41 53.5h-5.727a3 3 0 1 1 0-6h5.727c7.247 0 13.594-5.146 15.093-12.237.281-1.333-.049-2.705-.908-3.764s-2.132-1.666-3.495-1.666H65.683a3 3 0 1 1 0-6H82.1a10.46 10.46 0 0 1 8.156 3.887 10.458 10.458 0 0 1 2.117 8.783C90.292 46.352 81.476 53.5 71.41 53.5z"/></g><g><path d="M50.333 60s14.833 10.82 14.833 24.167H35.5C35.5 70.82 50.333 60 50.333 60z" fill="#f7b26a" stroke="#323232" stroke-width="3.5" stroke-miterlimit="10"/></g><path d="M55.32 83.167h9.846C65.167 69.82 50.333 59 50.333 59s-1.783 1.302-4.112 3.556c3.747 4.879 8.167 12.229 9.099 20.611z" opacity=".2"/><g><path d="M34.317 54.5H28.59c-10.066 0-18.882-7.148-20.963-16.997a10.457 10.457 0 0 1 2.117-8.783 10.458 10.458 0 0 1 8.156-3.887h16.417a3 3 0 1 1 0 6H17.9c-1.363 0-2.637.607-3.495 1.666s-1.189 2.431-.908 3.764C14.996 43.354 21.343 48.5 28.59 48.5h5.727a3 3 0 1 1 0 6z" fill="#f7b26a" stroke="#323232" stroke-width="3.5" stroke-miterlimit="10"/></g><path d="M50 66.167c16.384 0 29.667-21.64 29.667-48.333H20.333c0 26.693 13.283 48.333 29.667 48.333z" fill="#f7b26a" stroke="#323232" stroke-width="3.5" stroke-miterlimit="10"/><path d="M50.719 27.675l3.242 6.568a.801.801 0 0 0 .604.439l7.249 1.053c.658.096.92.904.444 1.367l-5.245 5.113a.804.804 0 0 0-.231.71l1.238 7.219a.802.802 0 0 1-1.163.845l-6.483-3.409a.8.8 0 0 0-.746 0l-6.483 3.409a.801.801 0 0 1-1.163-.845l1.238-7.219a.802.802 0 0 0-.231-.71l-5.245-5.113a.801.801 0 0 1 .444-1.367l7.249-1.053a.803.803 0 0 0 .604-.439l3.242-6.568a.8.8 0 0 1 1.436 0z" fill="#fff" stroke="#323232" stroke-width="3.5" stroke-miterlimit="10"/><path d="M27.829 35.411c.065.218.13.435.197.651" stroke-linecap="round" fill="#f7b26a" stroke="#fff" stroke-width="3.5" stroke-miterlimit="10"/><path d="M25.401 22.903a71.583 71.583 0 0 0 1.017 6.788" stroke-linecap="round" fill="#f7b26a" stroke="#fff" stroke-width="3.5" stroke-miterlimit="10"/><path d="M65.042 16.833c-1.286 23.562-12.945 42.251-27.49 43.872 3.786 2.856 8.001 4.461 12.448 4.461 16.384 0 29.667-21.64 29.667-48.333H65.042z" opacity=".2"/><metadata xmlns:d="https://loading.io/stock/">
<d:name>trophy</d:name>
<d:tags>trophy,bowl,best,first,winner,success,prize,award</d:tags>
<d:license>by</d:license>
<d:slug>d4apaa</d:slug>
</metadata></svg>