<?xml version="1.0"?>
<svg version="1.1" id="圖層_1" xmlns="http://www.w3.org/2000/svg" x="0" y="0" viewBox="0 0 100 100" xml:space="preserve"><g><path transform="rotate(-45.001 60.89 39.111)" fill="#c59b6d" d="M51.7 36.2h18.4v5.7H51.7z"/></g><g><path transform="rotate(-45.001 78.926 21.075)" fill="#f47e60" d="M73.1 18.2h11.7v5.7H73.1z"/></g><g><path fill="#f47e60" d="M63.4 10h5.7v11.7h-5.7z"/></g><g><path transform="rotate(-45.001 53.61 21.074)" fill="#f47e60" d="M50.7 15.2h5.7v11.7h-5.7z"/></g><g><path transform="rotate(-45.001 78.926 46.39)" fill="#f47e60" d="M76.1 40.6h5.7v11.7h-5.7z"/></g><g><path fill="#f47e60" d="M78.3 30.9H90v5.7H78.3z"/></g><path d="M28.8 49.5c3.9-3.9 8.7-6.6 13.7-8-8.6-2.8-18.4-.7-25.2 6.1-9.7 9.7-9.7 25.4 0 35.1 1.9 1.9 4.1 3.5 6.5 4.7-6.9-12-5.3-27.6 5-37.9z" fill="#abbd81"/><path d="M62.5 46.9L53 37.4l-6 6.1c-1.5-.8-3-1.5-4.6-2-5 1.4-9.7 4.1-13.7 8-10.3 10.3-11.9 25.8-5.1 37.9 9.3 4.7 20.9 3.1 28.7-4.7 8.1-8.1 9.4-20.3 4.1-29.8l6.1-6z" fill="#849b87"/><metadata xmlns:d="https://loading.io/stock/"><d:name>bomb</d:name><d:tags>danger,missile,issue,crisis,crash,error,bug,note,warning,tnt,explosion,canon,bomb,web application</d:tags><d:license>pro</d:license><d:slug>ljmehl</d:slug></metadata></svg>