<?xml version="1.0" encoding="utf-8"?><!--Generator: Adobe Illustrator 24.0.1, SVG Export Plug-In . SVG Version: 6.00 Build 0)--><svg version="1.1" id="圖層_1" xmlns="http://www.w3.org/2000/svg" xmlns:xlink="http://www.w3.org/1999/xlink" x="0px" y="0px" viewBox="0 0 100 100" enable-background="new 0 0 100 100" xml:space="preserve"><g><path fill="#8C6239" d="M38.09,16.19c1.63,7.27,0.06,13.82-3.51,14.63c-3.57,0.8-7.8-4.44-9.43-11.72s3.51-14.63,3.51-14.63 S36.45,8.92,38.09,16.19z"/><path fill="#8C6239" d="M61.91,16.19c-1.63,7.27-0.06,13.82,3.51,14.63c3.57,0.8,7.8-4.44,9.43-11.72S71.35,4.47,71.35,4.47 S63.55,8.92,61.91,16.19z"/><path fill="#8C6239" d="M38.09,16.19c1.63,7.27,0.06,13.82-3.51,14.63c-3.57,0.8-7.8-4.44-9.43-11.72s3.51-14.63,3.51-14.63 S36.45,8.92,38.09,16.19z"/><path fill="#8C6239" d="M61.91,16.19c-1.63,7.27-0.06,13.82,3.51,14.63c3.57,0.8,7.8-4.44,9.43-11.72S71.35,4.47,71.35,4.47 S63.55,8.92,61.91,16.19z"/></g><g><path fill="#8C6239" d="M70.69,21.28H29.31C21.96,21.28,16,27.23,16,34.58v29.66v10.45c0,9.16,7.43,16.59,16.59,16.59h34.83 c9.16,0,16.59-7.43,16.59-16.59V64.24V34.58C84,27.23,78.04,21.28,70.69,21.28z"/><path fill="#F4E6C8" d="M71.89,56.67H28.11c-3.77,0-6.82-3.05-6.82-6.82V38.94c0-6.31,5.11-11.42,11.42-11.42h34.6 c6.31,0,11.42,5.11,11.42,11.42v10.91C78.72,53.62,75.66,56.67,71.89,56.67z"/><path fill="#603813" d="M84,91.28L84,91.28c-5.31,0-9.61-4.3-9.61-9.61v-7.04c0-5.31,4.3-9.61,9.61-9.61h0V91.28z"/><path fill="#603813" d="M16,91.53L16,91.53c5.31,0,9.61-4.3,9.61-9.61v-7.04c0-5.31-4.3-9.61-9.61-9.61h0V91.53z"/><path fill="#8C6239" d="M70.69,21.28H29.31C21.96,21.28,16,27.23,16,34.58v29.66v10.45c0,9.16,7.43,16.59,16.59,16.59h34.83 c9.16,0,16.59-7.43,16.59-16.59V64.24V34.58C84,27.23,78.04,21.28,70.69,21.28z"/><path fill="#F4E6C8" d="M71.89,56.67H28.11c-3.77,0-6.82-3.05-6.82-6.82V38.94c0-6.31,5.11-11.42,11.42-11.42h34.6 c6.31,0,11.42,5.11,11.42,11.42v10.91C78.72,53.62,75.66,56.67,71.89,56.67z"/><path fill="#603813" d="M84,91.28L84,91.28c-5.31,0-9.61-4.3-9.61-9.61v-7.04c0-5.31,4.3-9.61,9.61-9.61h0V91.28z"/><path fill="#603813" d="M16,91.53L16,91.53c5.31,0,9.61-4.3,9.61-9.61v-7.04c0-5.31-4.3-9.61-9.61-9.61h0V91.53z"/></g><path fill="#F47E5F" d="M57.78,55.33c0,7.63-7.78,13.81-7.78,13.81s-7.78-6.18-7.78-13.81S45.71,44.21,50,44.21 S57.78,47.7,57.78,55.33z"/><g><circle fill="#FFFFFF" cx="35.98" cy="37.52" r="10"/><circle cx="35.98" cy="37.52" r="6.36"/><path d="M36.68,24.75c1.07,0.13,2.12,0.13,3.15,0.01c1.1-0.13,1.62,1.31,0.73,1.97c-1.46,1.09-3.26,1.64-5.14,1.42 c-2.29-0.27-4.21-1.65-5.37-3.58c-0.59-0.98,0.48-2.08,1.48-1.51C33.09,23.94,34.82,24.53,36.68,24.75z"/><circle fill="#FFFFFF" cx="35.98" cy="37.52" r="10"/><circle cx="35.98" cy="37.52" r="6.36"/><path d="M36.68,24.75c1.07,0.13,2.12,0.13,3.15,0.01c1.1-0.13,1.62,1.31,0.73,1.97c-1.46,1.09-3.26,1.64-5.14,1.42 c-2.29-0.27-4.21-1.65-5.37-3.58c-0.59-0.98,0.48-2.08,1.48-1.51C33.09,23.94,34.82,24.53,36.68,24.75z"/></g><g><circle fill="#FFFFFF" cx="64.02" cy="37.52" r="10"/><circle cx="64.02" cy="37.52" r="6.36"/><path d="M63.32,24.75c-1.07,0.13-2.12,0.13-3.15,0.01c-1.1-0.13-1.62,1.31-0.73,1.97c1.46,1.09,3.26,1.64,5.14,1.42 c2.29-0.27,4.21-1.65,5.37-3.58c0.59-0.98-0.48-2.08-1.48-1.51C66.91,23.94,65.18,24.53,63.32,24.75z"/><circle fill="#FFFFFF" cx="64.02" cy="37.52" r="10"/><circle cx="64.02" cy="37.52" r="6.36"/><path d="M63.32,24.75c-1.07,0.13-2.12,0.13-3.15,0.01c-1.1-0.13-1.62,1.31-0.73,1.97c1.46,1.09,3.26,1.64,5.14,1.42 c2.29-0.27,4.21-1.65,5.37-3.58c0.59-0.98-0.48-2.08-1.48-1.51C66.91,23.94,65.18,24.53,63.32,24.75z"/></g><g><path fill="#F4E6C8" d="M66.14,91.28c2.06-3.26,3.27-7.17,3.27-11.39c0-11.32-8.69-17.78-19.41-17.78s-19.41,6.45-19.41,17.78 c0,4.21,1.21,8.13,3.27,11.39H66.14z"/><path fill="#F4E6C8" d="M66.14,91.28c2.06-3.26,3.27-7.17,3.27-11.39c0-11.32-8.69-17.78-19.41-17.78s-19.41,6.45-19.41,17.78 c0,4.21,1.21,8.13,3.27,11.39H66.14z"/><line fill="none" stroke="#8C6239" stroke-width="3.5" stroke-linecap="round" stroke-linejoin="round" stroke-miterlimit="10" x1="38.44" y1="77.06" x2="41.6" y2="77.06"/><line fill="none" stroke="#8C6239" stroke-width="3.5" stroke-linecap="round" stroke-linejoin="round" stroke-miterlimit="10" x1="48.42" y1="77.06" x2="51.58" y2="77.06"/><line fill="none" stroke="#8C6239" stroke-width="3.5" stroke-linecap="round" stroke-linejoin="round" stroke-miterlimit="10" x1="53.75" y1="84.99" x2="56.91" y2="84.99"/><line fill="none" stroke="#8C6239" stroke-width="3.5" stroke-linecap="round" stroke-linejoin="round" stroke-miterlimit="10" x1="43.75" y1="84.99" x2="46.91" y2="84.99"/><line fill="none" stroke="#8C6239" stroke-width="3.5" stroke-linecap="round" stroke-linejoin="round" stroke-miterlimit="10" x1="61.56" y1="77.06" x2="58.4" y2="77.06"/></g><path fill="#F47E5F" d="M57.78,55.33c0,7.63-7.78,13.81-7.78,13.81s-7.78-6.18-7.78-13.81S45.71,44.21,50,44.21 S57.78,47.7,57.78,55.33z"/><metadata xmlns:d="https://loading.io/stock/">
<d:name>animal</d:name>
<d:tags>animal,owl,bird,nocturnal,zoo,cute,wild</d:tags>
<d:license>by</d:license>
<d:slug>q0gea6</d:slug>
</metadata></svg>