<?xml version="1.0" encoding="utf-8"?><!--Generator: Adobe Illustrator 24.0.1, SVG Export Plug-In . SVG Version: 6.00 Build 0)--><svg version="1.1" id="圖層_1" xmlns="http://www.w3.org/2000/svg" xmlns:xlink="http://www.w3.org/1999/xlink" x="0px" y="0px" viewBox="0 0 100 100" enable-background="new 0 0 100 100" xml:space="preserve"><g><path fill="#FFE219" d="M47.91,3.71c0.7-0.17,4.41,4.83,4.51,11.25c0.04,2.52,0.1,6.38-2.72,7.49c-1.87,0.74-4.69,0.13-5.78-1.19 c-1.58-1.91,0.43-5.35,1.43-7.05c0.21-0.36,0.81-1.34,1.4-2.77c0,0,0.31-0.89,0.62-1.74C48.66,6.22,47.4,3.84,47.91,3.71z"/><path fill="#FFE219" d="M56.57,5.58c0.71,0.14,1.96,6.24-0.66,12.1c-1.03,2.3-2.6,5.83-5.63,5.64c-2.01-0.12-4.31-1.86-4.74-3.52 c-0.63-2.4,2.65-4.67,4.27-5.79c0.34-0.24,1.3-0.87,2.44-1.92c0,0,0.66-0.68,1.3-1.32C56.18,8.17,56.05,5.48,56.57,5.58z"/></g><g><path fill="#FFE219" d="M70.69,14.96H29.31C21.96,14.96,16,20.83,16,28.08v29.25v10.3c0,9.03,7.43,18.86,16.59,18.86h34.83 c9.16,0,16.59-9.82,16.59-18.86v-10.3V28.08C84,20.83,78.04,14.96,70.69,14.96z"/><path fill="#FFF7E9" d="M66.14,86.48c2.06-2.95,3.27-6.5,3.27-10.32c0-10.26-8.69-18.61-19.41-18.61S30.59,65.9,30.59,76.16 c0,3.82,1.21,7.37,3.27,10.32H66.14z"/></g><g><ellipse cx="37.22" cy="39.34" rx="5.69" ry="5.8"/><ellipse cx="62.27" cy="39.34" rx="5.69" ry="5.8"/></g><path fill="#FFB500" d="M56.49,48.12c0.98,2.52-2.11,7.36-5.93,7.65c-4.33,0.33-8.04-5.31-7.08-7.85c0.86-2.28,5.53-2.23,6.5-2.22 C51.22,45.72,55.57,45.77,56.49,48.12z"/><path fill="#EEA300" d="M84,91.05L84,91.05c-5.31,0-9.61-4.3-9.61-9.61V71.9c0-5.31,4.3-9.61,9.61-9.61h0V91.05z"/><path fill="#EEA300" d="M16,91.3L16,91.3c5.31,0,9.61-4.3,9.61-9.61v-9.54c0-5.31-4.3-9.61-9.61-9.61h0V91.3z"/><metadata xmlns:d="https://loading.io/stock/">
<d:name>animal</d:name>
<d:tags>animal,poultry,bird,fowl,chick</d:tags>
<d:license>by</d:license>
<d:slug>y7mgna</d:slug>
</metadata></svg>